<mxfile host="app.diagrams.net" modified="2023-11-17T15:31:55.593Z" agent="Mozilla/5.0 (X11; Linux x86_64; rv:121.0) Gecko/20100101 Firefox/121.0" etag="7KvRc6GYyTG4hY3MqUka" version="22.1.2" type="github">
  <diagram name="Page-1" id="M8y6by8E7KbK7771LnwZ">
    <mxGraphModel dx="1410" dy="1927" grid="1" gridSize="10" guides="1" tooltips="1" connect="1" arrows="1" fold="1" page="1" pageScale="1" pageWidth="850" pageHeight="1100" math="0" shadow="0">
      <root>
        <mxCell id="0" />
        <mxCell id="1" parent="0" />
        <mxCell id="zI-hbchwOAUTR7jxpCwH-31" value="" style="edgeStyle=orthogonalEdgeStyle;rounded=0;orthogonalLoop=1;jettySize=auto;html=1;endArrow=none;endFill=0;" edge="1" parent="1" source="zI-hbchwOAUTR7jxpCwH-4" target="zI-hbchwOAUTR7jxpCwH-8">
          <mxGeometry relative="1" as="geometry" />
        </mxCell>
        <mxCell id="zI-hbchwOAUTR7jxpCwH-4" value="" style="ellipse;whiteSpace=wrap;html=1;direction=south;fillColor=#000000;" vertex="1" parent="1">
          <mxGeometry x="162.5" y="580" width="40" height="80" as="geometry" />
        </mxCell>
        <mxCell id="zI-hbchwOAUTR7jxpCwH-38" style="edgeStyle=orthogonalEdgeStyle;rounded=0;orthogonalLoop=1;jettySize=auto;html=1;exitX=1;exitY=0.5;exitDx=0;exitDy=0;endArrow=none;endFill=0;" edge="1" parent="1" source="zI-hbchwOAUTR7jxpCwH-6">
          <mxGeometry relative="1" as="geometry">
            <mxPoint x="360" y="736" as="targetPoint" />
          </mxGeometry>
        </mxCell>
        <mxCell id="zI-hbchwOAUTR7jxpCwH-6" value="" style="rounded=0;whiteSpace=wrap;html=1;fillColor=#cce5ff;strokeColor=#36393d;" vertex="1" parent="1">
          <mxGeometry x="240" y="716" width="80" height="40" as="geometry" />
        </mxCell>
        <mxCell id="zI-hbchwOAUTR7jxpCwH-96" style="edgeStyle=orthogonalEdgeStyle;rounded=0;orthogonalLoop=1;jettySize=auto;html=1;exitX=1;exitY=0.25;exitDx=0;exitDy=0;entryX=0.25;entryY=1;entryDx=0;entryDy=0;endArrow=none;endFill=0;" edge="1" parent="1" source="zI-hbchwOAUTR7jxpCwH-7" target="zI-hbchwOAUTR7jxpCwH-92">
          <mxGeometry relative="1" as="geometry" />
        </mxCell>
        <mxCell id="zI-hbchwOAUTR7jxpCwH-97" style="edgeStyle=orthogonalEdgeStyle;rounded=0;orthogonalLoop=1;jettySize=auto;html=1;exitX=1;exitY=0.75;exitDx=0;exitDy=0;entryX=0.25;entryY=0;entryDx=0;entryDy=0;endArrow=none;endFill=0;" edge="1" parent="1" source="zI-hbchwOAUTR7jxpCwH-7" target="zI-hbchwOAUTR7jxpCwH-48">
          <mxGeometry relative="1" as="geometry" />
        </mxCell>
        <mxCell id="zI-hbchwOAUTR7jxpCwH-7" value="" style="rounded=0;whiteSpace=wrap;html=1;" vertex="1" parent="1">
          <mxGeometry x="440" y="590" width="90" height="60" as="geometry" />
        </mxCell>
        <mxCell id="zI-hbchwOAUTR7jxpCwH-121" style="edgeStyle=orthogonalEdgeStyle;rounded=0;orthogonalLoop=1;jettySize=auto;html=1;exitX=1;exitY=0.5;exitDx=0;exitDy=0;endArrow=none;endFill=0;" edge="1" parent="1" source="zI-hbchwOAUTR7jxpCwH-8">
          <mxGeometry relative="1" as="geometry">
            <mxPoint x="360" y="620" as="targetPoint" />
          </mxGeometry>
        </mxCell>
        <mxCell id="zI-hbchwOAUTR7jxpCwH-8" value="" style="rounded=0;whiteSpace=wrap;html=1;fillColor=#cce5ff;strokeColor=#36393d;" vertex="1" parent="1">
          <mxGeometry x="240" y="600" width="80" height="40" as="geometry" />
        </mxCell>
        <mxCell id="zI-hbchwOAUTR7jxpCwH-11" value="" style="endArrow=none;html=1;rounded=0;" edge="1" parent="1">
          <mxGeometry width="50" height="50" relative="1" as="geometry">
            <mxPoint x="360" y="1010" as="sourcePoint" />
            <mxPoint x="360" y="170" as="targetPoint" />
          </mxGeometry>
        </mxCell>
        <mxCell id="zI-hbchwOAUTR7jxpCwH-12" value="" style="endArrow=none;html=1;rounded=0;" edge="1" parent="1">
          <mxGeometry width="50" height="50" relative="1" as="geometry">
            <mxPoint x="440" y="600" as="sourcePoint" />
            <mxPoint x="400" y="400" as="targetPoint" />
            <Array as="points">
              <mxPoint x="400" y="600" />
            </Array>
          </mxGeometry>
        </mxCell>
        <mxCell id="zI-hbchwOAUTR7jxpCwH-13" value="" style="endArrow=none;html=1;rounded=0;" edge="1" parent="1">
          <mxGeometry width="50" height="50" relative="1" as="geometry">
            <mxPoint x="400" y="840" as="sourcePoint" />
            <mxPoint x="440" y="640" as="targetPoint" />
            <Array as="points">
              <mxPoint x="400" y="640" />
            </Array>
          </mxGeometry>
        </mxCell>
        <mxCell id="zI-hbchwOAUTR7jxpCwH-19" value="" style="rounded=0;whiteSpace=wrap;html=1;" vertex="1" parent="1">
          <mxGeometry x="680" y="560" width="80" height="40" as="geometry" />
        </mxCell>
        <mxCell id="zI-hbchwOAUTR7jxpCwH-20" value="" style="rounded=0;whiteSpace=wrap;html=1;" vertex="1" parent="1">
          <mxGeometry x="680" y="630" width="80" height="40" as="geometry" />
        </mxCell>
        <mxCell id="zI-hbchwOAUTR7jxpCwH-32" value="" style="edgeStyle=orthogonalEdgeStyle;rounded=0;orthogonalLoop=1;jettySize=auto;html=1;endArrow=none;endFill=0;" edge="1" parent="1" source="zI-hbchwOAUTR7jxpCwH-23" target="zI-hbchwOAUTR7jxpCwH-6">
          <mxGeometry relative="1" as="geometry" />
        </mxCell>
        <mxCell id="zI-hbchwOAUTR7jxpCwH-23" value="" style="rounded=1;whiteSpace=wrap;html=1;" vertex="1" parent="1">
          <mxGeometry x="155" y="716" width="50" height="40" as="geometry" />
        </mxCell>
        <mxCell id="zI-hbchwOAUTR7jxpCwH-24" value="" style="rounded=0;whiteSpace=wrap;html=1;fillColor=#bac8d3;strokeColor=none;" vertex="1" parent="1">
          <mxGeometry x="180" y="717" width="15" height="39" as="geometry" />
        </mxCell>
        <mxCell id="zI-hbchwOAUTR7jxpCwH-25" value="" style="rounded=0;whiteSpace=wrap;html=1;fillColor=#bac8d3;strokeColor=none;" vertex="1" parent="1">
          <mxGeometry x="165" y="717" width="10" height="39" as="geometry" />
        </mxCell>
        <mxCell id="zI-hbchwOAUTR7jxpCwH-39" style="edgeStyle=orthogonalEdgeStyle;rounded=0;orthogonalLoop=1;jettySize=auto;html=1;exitX=1;exitY=0.5;exitDx=0;exitDy=0;endArrow=none;endFill=0;" edge="1" parent="1" source="zI-hbchwOAUTR7jxpCwH-27">
          <mxGeometry relative="1" as="geometry">
            <mxPoint x="360" y="856" as="targetPoint" />
          </mxGeometry>
        </mxCell>
        <mxCell id="zI-hbchwOAUTR7jxpCwH-27" value="" style="rounded=0;whiteSpace=wrap;html=1;fillColor=#cce5ff;strokeColor=#36393d;" vertex="1" parent="1">
          <mxGeometry x="240" y="836" width="80" height="40" as="geometry" />
        </mxCell>
        <mxCell id="zI-hbchwOAUTR7jxpCwH-34" value="" style="edgeStyle=orthogonalEdgeStyle;rounded=0;orthogonalLoop=1;jettySize=auto;html=1;endArrow=none;endFill=0;" edge="1" parent="1" source="zI-hbchwOAUTR7jxpCwH-33" target="zI-hbchwOAUTR7jxpCwH-27">
          <mxGeometry relative="1" as="geometry" />
        </mxCell>
        <mxCell id="zI-hbchwOAUTR7jxpCwH-33" value="" style="rounded=1;whiteSpace=wrap;html=1;" vertex="1" parent="1">
          <mxGeometry x="155" y="836" width="50" height="40" as="geometry" />
        </mxCell>
        <mxCell id="zI-hbchwOAUTR7jxpCwH-80" value="" style="group" vertex="1" connectable="0" parent="1">
          <mxGeometry x="543" y="700" width="112" height="112" as="geometry" />
        </mxCell>
        <mxCell id="zI-hbchwOAUTR7jxpCwH-48" value="" style="whiteSpace=wrap;html=1;aspect=fixed;fillColor=#fad7ac;strokeColor=#000000;strokeWidth=3;" vertex="1" parent="zI-hbchwOAUTR7jxpCwH-80">
          <mxGeometry width="70" height="70" as="geometry" />
        </mxCell>
        <mxCell id="zI-hbchwOAUTR7jxpCwH-75" value="" style="whiteSpace=wrap;html=1;aspect=fixed;fillColor=#fad7ac;strokeColor=#000000;strokeWidth=3;" vertex="1" parent="zI-hbchwOAUTR7jxpCwH-80">
          <mxGeometry x="14" y="14" width="70" height="70" as="geometry" />
        </mxCell>
        <mxCell id="zI-hbchwOAUTR7jxpCwH-78" value="" style="whiteSpace=wrap;html=1;aspect=fixed;fillColor=#fad7ac;strokeColor=#000000;strokeWidth=3;" vertex="1" parent="zI-hbchwOAUTR7jxpCwH-80">
          <mxGeometry x="28" y="28" width="70" height="70" as="geometry" />
        </mxCell>
        <mxCell id="zI-hbchwOAUTR7jxpCwH-79" value="" style="whiteSpace=wrap;html=1;aspect=fixed;fillColor=#fad7ac;strokeColor=#000000;strokeWidth=3;" vertex="1" parent="zI-hbchwOAUTR7jxpCwH-80">
          <mxGeometry x="42" y="42" width="70" height="70" as="geometry" />
        </mxCell>
        <mxCell id="zI-hbchwOAUTR7jxpCwH-82" value="" style="group" vertex="1" connectable="0" parent="1">
          <mxGeometry x="780" y="700" width="84" height="84" as="geometry" />
        </mxCell>
        <mxCell id="zI-hbchwOAUTR7jxpCwH-68" value="" style="whiteSpace=wrap;html=1;aspect=fixed;fillColor=#b1ddf0;strokeColor=#000000;strokeWidth=3;" vertex="1" parent="zI-hbchwOAUTR7jxpCwH-82">
          <mxGeometry width="70" height="70" as="geometry" />
        </mxCell>
        <mxCell id="zI-hbchwOAUTR7jxpCwH-81" value="" style="whiteSpace=wrap;html=1;aspect=fixed;fillColor=#b1ddf0;strokeColor=#000000;strokeWidth=3;" vertex="1" parent="zI-hbchwOAUTR7jxpCwH-82">
          <mxGeometry x="14" y="14" width="70" height="70" as="geometry" />
        </mxCell>
        <mxCell id="zI-hbchwOAUTR7jxpCwH-84" value="" style="group;strokeColor=none;" vertex="1" connectable="0" parent="1">
          <mxGeometry x="950" y="448" width="84" height="84" as="geometry" />
        </mxCell>
        <mxCell id="zI-hbchwOAUTR7jxpCwH-58" value="" style="whiteSpace=wrap;html=1;aspect=fixed;fillColor=#e3c800;strokeColor=#000000;strokeWidth=3;fontColor=#000000;" vertex="1" parent="zI-hbchwOAUTR7jxpCwH-84">
          <mxGeometry width="70" height="70" as="geometry" />
        </mxCell>
        <mxCell id="zI-hbchwOAUTR7jxpCwH-113" style="rounded=0;orthogonalLoop=1;jettySize=auto;html=1;exitX=0.75;exitY=1;exitDx=0;exitDy=0;strokeWidth=5;strokeColor=#0066CC;endArrow=none;endFill=0;" edge="1" parent="zI-hbchwOAUTR7jxpCwH-84" source="zI-hbchwOAUTR7jxpCwH-83">
          <mxGeometry relative="1" as="geometry">
            <mxPoint x="67" y="192" as="targetPoint" />
          </mxGeometry>
        </mxCell>
        <mxCell id="zI-hbchwOAUTR7jxpCwH-83" value="" style="whiteSpace=wrap;html=1;aspect=fixed;fillColor=#e3c800;strokeColor=#000000;strokeWidth=3;fontColor=#000000;" vertex="1" parent="zI-hbchwOAUTR7jxpCwH-84">
          <mxGeometry x="14" y="14" width="70" height="70" as="geometry" />
        </mxCell>
        <mxCell id="zI-hbchwOAUTR7jxpCwH-89" value="" style="group" vertex="1" connectable="0" parent="1">
          <mxGeometry x="724" y="406" width="126" height="126" as="geometry" />
        </mxCell>
        <mxCell id="zI-hbchwOAUTR7jxpCwH-57" value="" style="whiteSpace=wrap;html=1;aspect=fixed;fillColor=#6d8764;strokeColor=#000000;strokeWidth=3;fontColor=#ffffff;" vertex="1" parent="zI-hbchwOAUTR7jxpCwH-89">
          <mxGeometry width="70" height="70" as="geometry" />
        </mxCell>
        <mxCell id="zI-hbchwOAUTR7jxpCwH-85" value="" style="whiteSpace=wrap;html=1;aspect=fixed;fillColor=#6d8764;strokeColor=#000000;strokeWidth=3;fontColor=#ffffff;" vertex="1" parent="zI-hbchwOAUTR7jxpCwH-89">
          <mxGeometry x="14" y="14" width="70" height="70" as="geometry" />
        </mxCell>
        <mxCell id="zI-hbchwOAUTR7jxpCwH-86" value="" style="whiteSpace=wrap;html=1;aspect=fixed;fillColor=#6d8764;strokeColor=#000000;strokeWidth=3;fontColor=#ffffff;" vertex="1" parent="zI-hbchwOAUTR7jxpCwH-89">
          <mxGeometry x="28" y="28" width="70" height="70" as="geometry" />
        </mxCell>
        <mxCell id="zI-hbchwOAUTR7jxpCwH-87" value="" style="whiteSpace=wrap;html=1;aspect=fixed;fillColor=#6d8764;strokeColor=#000000;strokeWidth=3;fontColor=#ffffff;" vertex="1" parent="zI-hbchwOAUTR7jxpCwH-89">
          <mxGeometry x="42" y="42" width="70" height="70" as="geometry" />
        </mxCell>
        <mxCell id="zI-hbchwOAUTR7jxpCwH-88" value="" style="whiteSpace=wrap;html=1;aspect=fixed;fillColor=#6d8764;strokeColor=#000000;strokeWidth=3;fontColor=#ffffff;" vertex="1" parent="zI-hbchwOAUTR7jxpCwH-89">
          <mxGeometry x="56" y="56" width="70" height="70" as="geometry" />
        </mxCell>
        <mxCell id="zI-hbchwOAUTR7jxpCwH-93" value="" style="group" vertex="1" connectable="0" parent="1">
          <mxGeometry x="504" y="420" width="112" height="112" as="geometry" />
        </mxCell>
        <mxCell id="zI-hbchwOAUTR7jxpCwH-56" value="" style="whiteSpace=wrap;html=1;aspect=fixed;fillColor=#7EA6E0;strokeColor=#000000;strokeWidth=3;" vertex="1" parent="zI-hbchwOAUTR7jxpCwH-93">
          <mxGeometry width="70" height="70" as="geometry" />
        </mxCell>
        <mxCell id="zI-hbchwOAUTR7jxpCwH-90" value="" style="whiteSpace=wrap;html=1;aspect=fixed;fillColor=#7EA6E0;strokeColor=#000000;strokeWidth=3;" vertex="1" parent="zI-hbchwOAUTR7jxpCwH-93">
          <mxGeometry x="14" y="14" width="70" height="70" as="geometry" />
        </mxCell>
        <mxCell id="zI-hbchwOAUTR7jxpCwH-91" value="" style="whiteSpace=wrap;html=1;aspect=fixed;fillColor=#7EA6E0;strokeColor=#000000;strokeWidth=3;" vertex="1" parent="zI-hbchwOAUTR7jxpCwH-93">
          <mxGeometry x="28" y="28" width="70" height="70" as="geometry" />
        </mxCell>
        <mxCell id="zI-hbchwOAUTR7jxpCwH-92" value="" style="whiteSpace=wrap;html=1;aspect=fixed;fillColor=#7EA6E0;strokeColor=#000000;strokeWidth=3;" vertex="1" parent="zI-hbchwOAUTR7jxpCwH-93">
          <mxGeometry x="39" y="42" width="70" height="70" as="geometry" />
        </mxCell>
        <mxCell id="zI-hbchwOAUTR7jxpCwH-100" style="rounded=0;orthogonalLoop=1;jettySize=auto;html=1;exitX=0.5;exitY=1;exitDx=0;exitDy=0;endArrow=none;endFill=0;" edge="1" parent="1" source="zI-hbchwOAUTR7jxpCwH-92" target="zI-hbchwOAUTR7jxpCwH-48">
          <mxGeometry relative="1" as="geometry" />
        </mxCell>
        <mxCell id="zI-hbchwOAUTR7jxpCwH-101" style="edgeStyle=orthogonalEdgeStyle;rounded=0;orthogonalLoop=1;jettySize=auto;html=1;exitX=0.75;exitY=0;exitDx=0;exitDy=0;entryX=0;entryY=0.5;entryDx=0;entryDy=0;strokeWidth=5;endArrow=none;endFill=0;strokeColor=#0066CC;" edge="1" parent="1" source="zI-hbchwOAUTR7jxpCwH-48" target="zI-hbchwOAUTR7jxpCwH-20">
          <mxGeometry relative="1" as="geometry" />
        </mxCell>
        <mxCell id="zI-hbchwOAUTR7jxpCwH-102" style="edgeStyle=orthogonalEdgeStyle;rounded=0;orthogonalLoop=1;jettySize=auto;html=1;exitX=0.75;exitY=1;exitDx=0;exitDy=0;entryX=0;entryY=0.5;entryDx=0;entryDy=0;strokeWidth=5;endArrow=none;endFill=0;strokeColor=#0066CC;" edge="1" parent="1" source="zI-hbchwOAUTR7jxpCwH-92" target="zI-hbchwOAUTR7jxpCwH-19">
          <mxGeometry relative="1" as="geometry" />
        </mxCell>
        <mxCell id="zI-hbchwOAUTR7jxpCwH-103" style="edgeStyle=orthogonalEdgeStyle;rounded=0;orthogonalLoop=1;jettySize=auto;html=1;exitX=0.25;exitY=1;exitDx=0;exitDy=0;entryX=1;entryY=0.5;entryDx=0;entryDy=0;endArrow=none;endFill=0;strokeWidth=5;strokeColor=#0066CC;" edge="1" parent="1" source="zI-hbchwOAUTR7jxpCwH-88" target="zI-hbchwOAUTR7jxpCwH-19">
          <mxGeometry relative="1" as="geometry" />
        </mxCell>
        <mxCell id="zI-hbchwOAUTR7jxpCwH-104" style="edgeStyle=orthogonalEdgeStyle;rounded=0;orthogonalLoop=1;jettySize=auto;html=1;exitX=0.25;exitY=0;exitDx=0;exitDy=0;entryX=1;entryY=0.5;entryDx=0;entryDy=0;endArrow=none;endFill=0;strokeWidth=5;strokeColor=#0066CC;" edge="1" parent="1" source="zI-hbchwOAUTR7jxpCwH-68" target="zI-hbchwOAUTR7jxpCwH-20">
          <mxGeometry relative="1" as="geometry" />
        </mxCell>
        <mxCell id="zI-hbchwOAUTR7jxpCwH-105" style="edgeStyle=orthogonalEdgeStyle;rounded=0;orthogonalLoop=1;jettySize=auto;html=1;exitX=0.75;exitY=1;exitDx=0;exitDy=0;entryX=0.25;entryY=1;entryDx=0;entryDy=0;strokeWidth=5;strokeColor=#0066CC;endArrow=none;endFill=0;" edge="1" parent="1" source="zI-hbchwOAUTR7jxpCwH-88" target="zI-hbchwOAUTR7jxpCwH-83">
          <mxGeometry relative="1" as="geometry">
            <Array as="points">
              <mxPoint x="833" y="580" />
              <mxPoint x="982" y="580" />
            </Array>
          </mxGeometry>
        </mxCell>
        <mxCell id="zI-hbchwOAUTR7jxpCwH-115" value="&lt;font style=&quot;font-size: 30px;&quot;&gt;缝隙阵列&lt;/font&gt;" style="text;html=1;strokeColor=none;fillColor=none;align=center;verticalAlign=middle;whiteSpace=wrap;rounded=0;" vertex="1" parent="1">
          <mxGeometry x="165" y="670" width="142.5" height="36" as="geometry" />
        </mxCell>
        <mxCell id="zI-hbchwOAUTR7jxpCwH-116" value="&lt;font style=&quot;font-size: 30px;&quot;&gt;多臂螺旋天线&lt;/font&gt;" style="text;html=1;strokeColor=none;fillColor=none;align=center;verticalAlign=middle;whiteSpace=wrap;rounded=0;" vertex="1" parent="1">
          <mxGeometry x="140" y="530" width="197.5" height="40" as="geometry" />
        </mxCell>
        <mxCell id="zI-hbchwOAUTR7jxpCwH-117" value="&lt;font style=&quot;font-size: 30px;&quot;&gt;多转向回路&lt;/font&gt;" style="text;html=1;strokeColor=none;fillColor=none;align=center;verticalAlign=middle;whiteSpace=wrap;rounded=0;" vertex="1" parent="1">
          <mxGeometry x="160" y="796" width="160" height="30" as="geometry" />
        </mxCell>
        <mxCell id="zI-hbchwOAUTR7jxpCwH-124" value="" style="triangle;whiteSpace=wrap;html=1;direction=south;" vertex="1" parent="1">
          <mxGeometry x="195" y="200" width="55" height="40" as="geometry" />
        </mxCell>
      </root>
    </mxGraphModel>
  </diagram>
</mxfile>
